<?xml version="1.0" encoding="UTF-8"?>
<svg version="1.1" viewBox="0 0 2048 391" xmlns="http://www.w3.org/2000/svg">
<path transform="translate(0)" d="m0 0h2048v391h-2048z" fill="#FEFFFE"/>
<path transform="translate(211,77)" d="m0 0 4 1 3 39 3 37 1 6 2 32 1 5 2 29 2 23 3 39v14l3-1 12-23 13-24 12-22 13-24 15-28 39-72 13-23 4-8h117l-2 12-20 100-13 63-9 45-5 19 5-3 10-15 14-20 10-14 12-17 14-20 12-17 14-20 36-51 16-23 13-18 12-17 4-4h92l2 5 13 55 13 56 11 45 9 40 7 28 5 21h2l11-49 20-84 11-46 10-42 7-28 3-1h76l-1 8-9 41-10 47-7 30 140-1 2-6 21-87 7-28 1-3 88-1 1 2-6 23-13 56-11 47-10 43-7 30-6 22v7l4-5 13-21 16-24 15-23 13-20 8-12 16-25 10-15 21-32 11-17 10-15 11-17 2-3h103l6 19 15 54 15 52 8 29 14 49 4 15 3 1 13-57 18-73 9-38 11-46 2-6h73l1 2-5 22-13 69-3 17 22-15 17-12 14-10 40-28 17-12 20-14 19-13 10-6h89l-1 3-12 8-14 11-42 32-13 10-21 16-18 14-13 10-10 7-2 1 1 5 22 33 7 10 10 15 25 37 22 33 2 5 4-2 8-14 10-15 15-24 11-17 16-25 14-22 12-19 11-17 28-44 16-25 10-16 6-9h96l12 50 10 41 24 100 17 69 7 30v4h-90l-3-16-22-133-12-74-1-11-5 5-15 23-50 75-2 4 17 1 54 6 14 2v3l-41 14-36 13-40 14-6 3-5 8-24 46-9 16h-128l-9-15-7-10-9-15-15-23-12-19-10-15-11-18-9-14-3-3-20 12-19 12-14 9-4 4-5 32-9 49-3 14-1 1h-125l-3-8-12-50-13-52-7-30-19-77-3-17-5 5-15 26-12 19-13 22-8 13-14 23-2 3 11 1 36 1h46l-5 4-39 15-51 20-34 13-8 4-6 9-15 29-9 17-5 10h-142l1-11 16-100 2-8-140 3h-10l-4 23-14 76-4 17h-148l-2-6-15-85-10-53-12-67-4-22-5 5-11 18-10 15-12 19-24 36-9 15 34 1 54 3-3 3-15 7-30 12-38 16-30 12-18 8-5 6-20 41-8 15-105 1h-40l1-10 17-82 7-35 8-37 10-50 5-20-5 5-8 16-17 32-15 28-14 27-12 22-12 23-12 22-12 23-10 19-8 14-3 3h-21l-52-1-2-7-2-27-1-11-3-29-3-30-4-47-6-71v-3h-2l-2 10-19 88-10 44-14 64-5 20h-70l-1-2 6-25 13-60 20-93 12-56 10-47 2-10 1-1z" fill="#121213"/>
</svg>
